<svg width="430" height="430" viewBox="0 0 430 430" fill="none" xmlns="http://www.w3.org/2000/svg">
<rect x="16" y="15" width="3" height="245" fill="url(#paint0_linear_12_2)"/>
<rect x="19" y="18" width="3" height="245" transform="rotate(-90 19 18)" fill="url(#paint1_linear_12_2)"/>
<rect x="414" y="414" width="3" height="245" transform="rotate(-180 414 414)" fill="url(#paint2_linear_12_2)"/>
<rect x="411" y="411" width="3" height="245" transform="rotate(90 411 411)" fill="url(#paint3_linear_12_2)"/>
<path d="M349.783 313.746C350.159 312.466 350.353 311.139 350.358 309.804C350.358 298.552 336.669 289.435 319.723 289.435C302.776 289.435 289.087 298.552 289.087 309.804C289.09 311.14 289.288 312.468 289.676 313.746H349.783Z" fill="#EB5D3A"/>
<path d="M349.783 315.115H289.676C289.37 315.127 289.07 315.037 288.822 314.858C288.573 314.68 288.392 314.423 288.307 314.13C287.887 312.726 287.67 311.269 287.664 309.804C287.664 297.813 302.023 288.066 319.668 288.066C337.312 288.066 351.672 297.813 351.672 309.804C351.672 311.27 351.455 312.727 351.028 314.13C350.949 314.403 350.786 314.645 350.563 314.822C350.34 314.998 350.067 315.101 349.783 315.115V315.115ZM290.73 312.377H348.715C348.893 311.531 348.985 310.669 348.989 309.804C348.989 299.318 335.861 290.804 319.722 290.804C303.584 290.804 290.456 299.318 290.456 309.804C290.46 310.669 290.552 311.531 290.73 312.377Z" fill="#093F68"/>
<path d="M319.723 302.96C319.36 302.96 319.012 302.815 318.755 302.559C318.498 302.302 318.354 301.954 318.354 301.591V289.435C318.354 289.072 318.498 288.724 318.755 288.467C319.012 288.211 319.36 288.066 319.723 288.066C320.086 288.066 320.434 288.211 320.691 288.467C320.947 288.724 321.092 289.072 321.092 289.435V301.591C321.092 301.954 320.947 302.302 320.691 302.559C320.434 302.815 320.086 302.96 319.723 302.96Z" fill="#093F68"/>
<path d="M368.797 313.746H61.2675C56.9054 313.746 53.3691 317.282 53.3691 321.645V322.931C53.3691 327.294 56.9054 330.83 61.2675 330.83H368.797C373.159 330.83 376.695 327.294 376.695 322.931V321.645C376.695 317.282 373.159 313.746 368.797 313.746Z" fill="#3C3C3C"/>
<path d="M368.797 332.199H61.2672C58.8105 332.195 56.4555 331.217 54.7183 329.48C52.9812 327.743 52.0036 325.388 52 322.931V321.645C52.0036 319.188 52.9812 316.833 54.7183 315.096C56.4555 313.359 58.8105 312.381 61.2672 312.377H368.797C371.253 312.381 373.609 313.359 375.346 315.096C377.083 316.833 378.06 319.188 378.064 321.645V322.931C378.06 325.388 377.083 327.743 375.346 329.48C373.609 331.217 371.253 332.195 368.797 332.199V332.199ZM61.2672 315.115C59.5366 315.119 57.8779 315.808 56.6542 317.032C55.4304 318.255 54.7413 319.914 54.7377 321.645V322.931C54.7413 324.662 55.4304 326.321 56.6542 327.544C57.8779 328.768 59.5366 329.457 61.2672 329.461H368.797C370.527 329.457 372.186 328.768 373.41 327.544C374.634 326.321 375.323 324.662 375.326 322.931V321.645C375.323 319.914 374.634 318.255 373.41 317.032C372.186 315.808 370.527 315.119 368.797 315.115H61.2672Z" fill="#093F68"/>
<path d="M312.632 109.347H117.431C109.879 109.347 103.756 115.47 103.756 123.022V263.892C103.756 271.445 109.879 277.567 117.431 277.567H312.632C320.184 277.567 326.307 271.445 326.307 263.892V123.022C326.307 115.47 320.184 109.347 312.632 109.347Z" fill="url(#paint4_linear_12_2)"/>
<path d="M312.632 278.936H117.432C113.439 278.936 109.609 277.35 106.785 274.526C103.961 271.702 102.375 267.872 102.375 263.879V123.022C102.375 119.029 103.961 115.199 106.785 112.375C109.609 109.551 113.439 107.965 117.432 107.965H312.632C316.626 107.965 320.456 109.551 323.28 112.375C326.104 115.199 327.69 119.029 327.69 123.022V263.879C327.69 267.872 326.104 271.702 323.28 274.526C320.456 277.35 316.626 278.936 312.632 278.936ZM117.432 110.716C114.165 110.716 111.031 112.014 108.721 114.324C106.41 116.635 105.112 119.768 105.112 123.036V263.879C105.112 267.146 106.41 270.28 108.721 272.59C111.031 274.9 114.165 276.198 117.432 276.198H312.632C315.9 276.198 319.033 274.9 321.344 272.59C323.654 270.28 324.952 267.146 324.952 263.879V123.022C324.952 119.755 323.654 116.621 321.344 114.311C319.033 112 315.9 110.702 312.632 110.702L117.432 110.716Z" fill="#093F68"/>
<path d="M254.483 313.746H175.582L183.822 277.567H246.242L254.483 313.746Z" fill="#EB5D3A"/>
<path d="M254.483 315.115H175.581C175.376 315.114 175.173 315.067 174.988 314.977C174.803 314.887 174.641 314.756 174.514 314.595C174.387 314.435 174.298 314.248 174.253 314.05C174.208 313.851 174.208 313.644 174.254 313.445L182.467 277.266C182.536 276.957 182.711 276.682 182.96 276.487C183.21 276.293 183.519 276.191 183.836 276.198H246.256C246.572 276.191 246.882 276.293 247.131 276.487C247.381 276.682 247.555 276.957 247.625 277.266L255.838 313.445C255.883 313.644 255.883 313.851 255.838 314.05C255.793 314.248 255.704 314.435 255.578 314.595C255.448 314.76 255.281 314.893 255.091 314.983C254.901 315.073 254.693 315.118 254.483 315.115ZM177.306 312.377H252.758L245.147 278.936H184.917L177.306 312.377Z" fill="#093F68"/>
<path d="M311.127 123.364H118.924V248.219H311.127V123.364Z" fill="white"/>
<path d="M311.14 249.588H118.924C118.561 249.588 118.213 249.443 117.956 249.187C117.699 248.93 117.555 248.582 117.555 248.219V123.364C117.555 123.001 117.699 122.653 117.956 122.396C118.213 122.14 118.561 121.996 118.924 121.996H311.14C311.503 121.996 311.852 122.14 312.108 122.396C312.365 122.653 312.509 123.001 312.509 123.364V248.219C312.509 248.582 312.365 248.93 312.108 249.187C311.852 249.443 311.503 249.588 311.14 249.588ZM120.293 246.85H309.771V124.733H120.293V246.85Z" fill="#093F68"/>
<path d="M175.582 123.364H118.924V248.219H175.582V123.364Z" fill="white"/>
<path d="M175.581 249.588H118.924C118.561 249.588 118.213 249.443 117.956 249.187C117.699 248.93 117.555 248.582 117.555 248.219V123.364C117.555 123.001 117.699 122.653 117.956 122.396C118.213 122.14 118.561 121.996 118.924 121.996H175.581C175.944 121.996 176.293 122.14 176.549 122.396C176.806 122.653 176.95 123.001 176.95 123.364V248.219C176.95 248.582 176.806 248.93 176.549 249.187C176.293 249.443 175.944 249.588 175.581 249.588ZM120.293 246.85H174.213V124.733H120.293V246.85Z" fill="#093F68"/>
<path d="M311.127 123.364H175.582V248.219H311.127V123.364Z" fill="#093F68"/>
<path d="M311.14 249.588H175.622C175.259 249.588 174.911 249.443 174.654 249.187C174.397 248.93 174.253 248.582 174.253 248.219V123.364C174.253 123.001 174.397 122.653 174.654 122.396C174.911 122.14 175.259 121.996 175.622 121.996H311.14C311.503 121.996 311.851 122.14 312.108 122.396C312.364 122.653 312.508 123.001 312.508 123.364V248.219C312.508 248.582 312.364 248.93 312.108 249.187C311.851 249.443 311.503 249.588 311.14 249.588ZM176.991 246.85H309.771V124.733H176.991V246.85Z" fill="#093F68"/>
<path d="M158.525 140.53H135.529C135.165 140.53 134.817 140.386 134.561 140.129C134.304 139.872 134.16 139.524 134.16 139.161C134.16 138.798 134.304 138.45 134.561 138.193C134.817 137.936 135.165 137.792 135.529 137.792H158.525C158.889 137.792 159.237 137.936 159.493 138.193C159.75 138.45 159.894 138.798 159.894 139.161C159.894 139.524 159.75 139.872 159.493 140.129C159.237 140.386 158.889 140.53 158.525 140.53Z" fill="#093F68"/>
<path d="M162.467 154H143.084C142.721 154 142.373 153.855 142.116 153.599C141.86 153.342 141.715 152.994 141.715 152.631C141.715 152.268 141.86 151.92 142.116 151.663C142.373 151.406 142.721 151.262 143.084 151.262H162.467C162.83 151.262 163.179 151.406 163.435 151.663C163.692 151.92 163.836 152.268 163.836 152.631C163.836 152.994 163.692 153.342 163.435 153.599C163.179 153.855 162.83 154 162.467 154Z" fill="#093F68"/>
<path d="M165.096 167.469H148.998C148.635 167.469 148.287 167.325 148.03 167.068C147.773 166.812 147.629 166.463 147.629 166.1C147.629 165.737 147.773 165.389 148.03 165.132C148.287 164.876 148.635 164.732 148.998 164.732H165.096C165.459 164.732 165.807 164.876 166.064 165.132C166.32 165.389 166.465 165.737 166.465 166.1C166.465 166.463 166.32 166.812 166.064 167.068C165.807 167.325 165.459 167.469 165.096 167.469V167.469Z" fill="#093F68"/>
<path d="M159.839 180.939H139.47C139.107 180.939 138.759 180.795 138.502 180.538C138.246 180.281 138.102 179.933 138.102 179.57C138.102 179.207 138.246 178.859 138.502 178.602C138.759 178.345 139.107 178.201 139.47 178.201H159.839C160.202 178.201 160.55 178.345 160.807 178.602C161.064 178.859 161.208 179.207 161.208 179.57C161.208 179.933 161.064 180.281 160.807 180.538C160.55 180.795 160.202 180.939 159.839 180.939Z" fill="#093F68"/>
<path d="M154.364 194.409H135.529C135.165 194.409 134.817 194.264 134.561 194.008C134.304 193.751 134.16 193.403 134.16 193.04C134.16 192.677 134.304 192.328 134.561 192.072C134.817 191.815 135.165 191.671 135.529 191.671H154.364C154.727 191.671 155.075 191.815 155.332 192.072C155.589 192.328 155.733 192.677 155.733 193.04C155.733 193.403 155.589 193.751 155.332 194.008C155.075 194.264 154.727 194.409 154.364 194.409V194.409Z" fill="#093F68"/>
<path d="M158.525 207.878H141.88C141.517 207.878 141.168 207.734 140.912 207.477C140.655 207.221 140.511 206.872 140.511 206.509C140.511 206.146 140.655 205.798 140.912 205.541C141.168 205.285 141.517 205.14 141.88 205.14H158.525C158.888 205.14 159.236 205.285 159.493 205.541C159.75 205.798 159.894 206.146 159.894 206.509C159.894 206.872 159.75 207.221 159.493 207.477C159.236 207.734 158.888 207.878 158.525 207.878Z" fill="#093F68"/>
<path d="M152.776 221.348H135.529C135.165 221.348 134.817 221.204 134.561 220.947C134.304 220.69 134.16 220.342 134.16 219.979C134.16 219.616 134.304 219.268 134.561 219.011C134.817 218.754 135.165 218.61 135.529 218.61H152.776C153.139 218.61 153.487 218.754 153.744 219.011C154.001 219.268 154.145 219.616 154.145 219.979C154.145 220.342 154.001 220.69 153.744 220.947C153.487 221.204 153.139 221.348 152.776 221.348Z" fill="#093F68"/>
<path d="M158.525 234.817H141.88C141.517 234.817 141.168 234.673 140.912 234.417C140.655 234.16 140.511 233.812 140.511 233.449C140.511 233.086 140.655 232.737 140.912 232.481C141.168 232.224 141.517 232.08 141.88 232.08H158.525C158.888 232.08 159.236 232.224 159.493 232.481C159.75 232.737 159.894 233.086 159.894 233.449C159.894 233.812 159.75 234.16 159.493 234.417C159.236 234.673 158.888 234.817 158.525 234.817Z" fill="#093F68"/>
<path d="M216.401 140.53H193.404C193.041 140.53 192.693 140.386 192.436 140.129C192.179 139.872 192.035 139.524 192.035 139.161C192.035 138.798 192.179 138.45 192.436 138.193C192.693 137.936 193.041 137.792 193.404 137.792H216.401C216.764 137.792 217.112 137.936 217.369 138.193C217.626 138.45 217.77 138.798 217.77 139.161C217.77 139.524 217.626 139.872 217.369 140.129C217.112 140.386 216.764 140.53 216.401 140.53Z" fill="white"/>
<path d="M248.104 154H200.905C200.542 154 200.194 153.855 199.937 153.599C199.68 153.342 199.536 152.994 199.536 152.631C199.536 152.268 199.68 151.92 199.937 151.663C200.194 151.406 200.542 151.262 200.905 151.262H248.104C248.467 151.262 248.815 151.406 249.071 151.663C249.328 151.92 249.472 152.268 249.472 152.631C249.472 152.994 249.328 153.342 249.071 153.599C248.815 153.855 248.467 154 248.104 154Z" fill="#FFBC0E"/>
<path d="M236.386 167.469H200.905C200.542 167.469 200.194 167.325 199.937 167.068C199.68 166.812 199.536 166.463 199.536 166.1C199.536 165.737 199.68 165.389 199.937 165.132C200.194 164.876 200.542 164.732 200.905 164.732H236.386C236.749 164.732 237.097 164.876 237.354 165.132C237.611 165.389 237.755 165.737 237.755 166.1C237.755 166.463 237.611 166.812 237.354 167.068C237.097 167.325 236.749 167.469 236.386 167.469Z" fill="#FFBC0E"/>
<path d="M217.66 180.939H197.237C196.873 180.939 196.525 180.795 196.269 180.538C196.012 180.281 195.868 179.933 195.868 179.57C195.868 179.207 196.012 178.859 196.269 178.602C196.525 178.345 196.873 178.201 197.237 178.201H217.605C217.968 178.201 218.317 178.345 218.573 178.602C218.83 178.859 218.974 179.207 218.974 179.57C218.974 179.933 218.83 180.281 218.573 180.538C218.317 180.795 217.968 180.939 217.605 180.939H217.66Z" fill="white"/>
<path d="M225.764 194.409H202.712C202.349 194.409 202.001 194.264 201.744 194.008C201.487 193.751 201.343 193.403 201.343 193.04C201.343 192.677 201.487 192.328 201.744 192.072C202.001 191.815 202.349 191.671 202.712 191.671H225.709C226.072 191.671 226.42 191.815 226.677 192.072C226.934 192.328 227.078 192.677 227.078 193.04C227.078 193.403 226.934 193.751 226.677 194.008C226.42 194.264 226.072 194.409 225.709 194.409H225.764Z" fill="#F56132"/>
<path d="M237.482 207.878H201.973C201.61 207.878 201.262 207.734 201.005 207.477C200.749 207.221 200.604 206.872 200.604 206.509C200.604 206.146 200.749 205.798 201.005 205.541C201.262 205.285 201.61 205.14 201.973 205.14H237.482C237.845 205.14 238.193 205.285 238.45 205.541C238.706 205.798 238.851 206.146 238.851 206.509C238.851 206.872 238.706 207.221 238.45 207.477C238.193 207.734 237.845 207.878 237.482 207.878Z" fill="white"/>
<path d="M210.597 221.348H193.349C192.986 221.348 192.638 221.204 192.381 220.947C192.125 220.69 191.98 220.342 191.98 219.979C191.98 219.616 192.125 219.268 192.381 219.011C192.638 218.754 192.986 218.61 193.349 218.61H210.597C210.96 218.61 211.308 218.754 211.565 219.011C211.822 219.268 211.966 219.616 211.966 219.979C211.966 220.342 211.822 220.69 211.565 220.947C211.308 221.204 210.96 221.348 210.597 221.348Z" fill="white"/>
<path d="M237.481 234.817H199.7C199.337 234.817 198.989 234.673 198.732 234.417C198.476 234.16 198.332 233.812 198.332 233.449C198.332 233.086 198.476 232.737 198.732 232.481C198.989 232.224 199.337 232.08 199.7 232.08H237.481C237.844 232.08 238.192 232.224 238.449 232.481C238.706 232.737 238.85 233.086 238.85 233.449C238.85 233.812 238.706 234.16 238.449 234.417C238.192 234.673 237.844 234.817 237.481 234.817Z" fill="#70CC40"/>
<path d="M273.674 234.817H248.87C248.507 234.817 248.159 234.673 247.902 234.417C247.646 234.16 247.501 233.812 247.501 233.449C247.501 233.086 247.646 232.737 247.902 232.481C248.159 232.224 248.507 232.08 248.87 232.08H273.674C274.037 232.08 274.385 232.224 274.642 232.481C274.899 232.737 275.043 233.086 275.043 233.449C275.043 233.812 274.899 234.16 274.642 234.417C274.385 234.673 274.037 234.817 273.674 234.817Z" fill="#FFBC0E"/>
<path d="M265.68 167.469H248.159C247.796 167.469 247.448 167.325 247.191 167.068C246.934 166.812 246.79 166.463 246.79 166.1C246.79 165.737 246.934 165.389 247.191 165.132C247.448 164.876 247.796 164.732 248.159 164.732H265.68C266.043 164.732 266.392 164.876 266.648 165.132C266.905 165.389 267.049 165.737 267.049 166.1C267.049 166.463 266.905 166.812 266.648 167.068C266.392 167.325 266.043 167.469 265.68 167.469Z" fill="white"/>
<path d="M290.607 154H256.864C256.501 154 256.153 153.855 255.896 153.599C255.639 153.342 255.495 152.994 255.495 152.631C255.495 152.268 255.639 151.92 255.896 151.663C256.153 151.406 256.501 151.262 256.864 151.262H290.607C290.97 151.262 291.318 151.406 291.574 151.663C291.831 151.92 291.975 152.268 291.975 152.631C291.975 152.994 291.831 153.342 291.574 153.599C291.318 153.855 290.97 154 290.607 154Z" fill="#E85C31"/>
<path d="M285.008 167.469H275.153C274.79 167.469 274.441 167.325 274.185 167.068C273.928 166.812 273.784 166.463 273.784 166.1C273.784 165.737 273.928 165.389 274.185 165.132C274.441 164.876 274.79 164.732 275.153 164.732H285.008C285.371 164.732 285.72 164.876 285.976 165.132C286.233 165.389 286.377 165.737 286.377 166.1C286.377 166.463 286.233 166.812 285.976 167.068C285.72 167.325 285.371 167.469 285.008 167.469Z" fill="#F56132"/>
<path d="M242.409 194.409H232.553C232.19 194.409 231.842 194.264 231.586 194.008C231.329 193.751 231.185 193.403 231.185 193.04C231.185 192.677 231.329 192.328 231.586 192.072C231.842 191.815 232.19 191.671 232.553 191.671H242.409C242.772 191.671 243.12 191.815 243.377 192.072C243.634 192.328 243.778 192.677 243.778 193.04C243.778 193.403 243.634 193.751 243.377 194.008C243.12 194.264 242.772 194.409 242.409 194.409Z" fill="#F56132"/>
<path d="M290.607 194.409H250.513C250.15 194.409 249.802 194.264 249.545 194.008C249.288 193.751 249.144 193.403 249.144 193.04C249.144 192.677 249.288 192.328 249.545 192.072C249.802 191.815 250.15 191.671 250.513 191.671H290.607C290.97 191.671 291.318 191.815 291.575 192.072C291.832 192.328 291.976 192.677 291.976 193.04C291.976 193.403 291.832 193.751 291.575 194.008C291.318 194.264 290.97 194.409 290.607 194.409V194.409Z" fill="#FFBC0E"/>
<path d="M256.865 207.878H248.104C247.741 207.878 247.393 207.734 247.136 207.477C246.88 207.221 246.735 206.872 246.735 206.509C246.735 206.146 246.88 205.798 247.136 205.541C247.393 205.285 247.741 205.14 248.104 205.14H256.865C257.228 205.14 257.576 205.285 257.833 205.541C258.09 205.798 258.234 206.146 258.234 206.509C258.234 206.872 258.09 207.221 257.833 207.477C257.576 207.734 257.228 207.878 256.865 207.878Z" fill="#E85C31"/>
<path d="M290.607 234.817H285.009C284.645 234.817 284.297 234.673 284.041 234.417C283.784 234.16 283.64 233.812 283.64 233.449C283.64 233.086 283.784 232.737 284.041 232.481C284.297 232.224 284.645 232.08 285.009 232.08H290.607C290.97 232.08 291.318 232.224 291.575 232.481C291.832 232.737 291.976 233.086 291.976 233.449C291.976 233.812 291.832 234.16 291.575 234.417C291.318 234.673 290.97 234.817 290.607 234.817Z" fill="white"/>
<path d="M364.211 98.3689H280.341C277.045 98.3689 274.373 101.041 274.373 104.337V168.126C274.373 171.422 277.045 174.095 280.341 174.095H364.211C367.507 174.095 370.18 171.422 370.18 168.126V104.337C370.18 101.041 367.507 98.3689 364.211 98.3689Z" fill="white"/>
<path d="M364.238 175.463H280.341C278.396 175.46 276.532 174.686 275.156 173.31C273.781 171.935 273.007 170.071 273.003 168.126V104.337C273.007 102.392 273.781 100.528 275.156 99.153C276.532 97.7778 278.396 97.0036 280.341 97H364.238C366.183 97.0036 368.047 97.7778 369.422 99.153C370.798 100.528 371.572 102.392 371.575 104.337V168.126C371.572 170.071 370.798 171.935 369.422 173.31C368.047 174.686 366.183 175.46 364.238 175.463V175.463ZM280.341 99.7377C279.122 99.7413 277.954 100.227 277.092 101.089C276.23 101.951 275.745 103.118 275.741 104.337V168.126C275.745 169.345 276.23 170.513 277.092 171.375C277.954 172.236 279.122 172.722 280.341 172.726H364.238C365.457 172.722 366.625 172.236 367.487 171.375C368.348 170.513 368.834 169.345 368.838 168.126V104.337C368.834 103.118 368.348 101.951 367.487 101.089C366.625 100.227 365.457 99.7413 364.238 99.7377H280.341Z" fill="#093F68"/>
<path d="M370.18 117.04H274.359C273.996 117.04 273.648 116.896 273.391 116.639C273.134 116.383 272.99 116.034 272.99 115.671C272.99 115.308 273.134 114.96 273.391 114.703C273.648 114.447 273.996 114.302 274.359 114.302H370.18C370.543 114.302 370.891 114.447 371.148 114.703C371.404 114.96 371.549 115.308 371.549 115.671C371.549 116.034 371.404 116.383 371.148 116.639C370.891 116.896 370.543 117.04 370.18 117.04Z" fill="#093F68"/>
<path d="M283.543 109.539C285.063 109.539 286.295 108.307 286.295 106.787C286.295 105.268 285.063 104.036 283.543 104.036C282.024 104.036 280.792 105.268 280.792 106.787C280.792 108.307 282.024 109.539 283.543 109.539Z" fill="#E85C31"/>
<path d="M292.195 109.539C293.715 109.539 294.947 108.307 294.947 106.787C294.947 105.268 293.715 104.036 292.195 104.036C290.676 104.036 289.444 105.268 289.444 106.787C289.444 108.307 290.676 109.539 292.195 109.539Z" fill="#093F68"/>
<path d="M300.833 109.539C302.353 109.539 303.584 108.307 303.584 106.787C303.584 105.268 302.353 104.036 300.833 104.036C299.313 104.036 298.082 105.268 298.082 106.787C298.082 108.307 299.313 109.539 300.833 109.539Z" fill="#093F68"/>
<path d="M310.483 155.998C310.167 156.003 309.86 155.891 309.621 155.683L296.726 145.006C296.571 144.878 296.446 144.717 296.361 144.534C296.275 144.352 296.23 144.153 296.23 143.952C296.23 143.751 296.275 143.552 296.361 143.37C296.446 143.188 296.571 143.027 296.726 142.898L309.621 132.207C309.903 132.003 310.252 131.914 310.597 131.958C310.943 132.002 311.259 132.176 311.48 132.445C311.702 132.713 311.813 133.056 311.79 133.404C311.768 133.751 311.613 134.077 311.359 134.315L299.751 143.897L311.359 153.479C311.498 153.594 311.612 153.735 311.696 153.895C311.78 154.054 311.832 154.228 311.849 154.408C311.865 154.587 311.846 154.768 311.793 154.94C311.739 155.112 311.652 155.271 311.537 155.41C311.418 155.582 311.261 155.724 311.078 155.826C310.896 155.928 310.692 155.987 310.483 155.998Z" fill="#E85C31"/>
<path d="M334.124 155.998C333.923 155.998 333.724 155.954 333.542 155.869C333.36 155.784 333.198 155.66 333.07 155.505C332.954 155.367 332.868 155.207 332.814 155.035C332.761 154.863 332.742 154.683 332.758 154.503C332.775 154.324 332.826 154.15 332.91 153.991C332.994 153.831 333.109 153.69 333.248 153.575L344.856 143.993L333.248 134.411C333.109 134.296 332.995 134.155 332.911 133.996C332.827 133.836 332.775 133.662 332.759 133.483C332.742 133.304 332.761 133.123 332.815 132.951C332.868 132.779 332.955 132.619 333.07 132.481C333.185 132.343 333.326 132.228 333.485 132.144C333.644 132.061 333.819 132.009 333.998 131.992C334.177 131.976 334.358 131.995 334.53 132.048C334.702 132.101 334.861 132.188 335 132.303L347.812 142.898C347.967 143.027 348.092 143.188 348.178 143.37C348.263 143.552 348.308 143.751 348.308 143.952C348.308 144.153 348.263 144.352 348.178 144.534C348.092 144.717 347.967 144.878 347.812 145.006L334.945 155.738C334.706 155.911 334.418 156.002 334.124 155.998V155.998Z" fill="#E85C31"/>
<path d="M315.356 162.363C315.169 162.36 314.983 162.323 314.809 162.254C314.644 162.181 314.496 162.077 314.371 161.947C314.247 161.816 314.15 161.663 314.085 161.495C314.02 161.327 313.989 161.148 313.994 160.969C313.998 160.789 314.038 160.611 314.111 160.447L329.168 126.349C329.241 126.184 329.345 126.035 329.476 125.911C329.606 125.787 329.759 125.69 329.927 125.625C330.095 125.56 330.274 125.529 330.454 125.533C330.633 125.538 330.811 125.577 330.975 125.65C331.14 125.723 331.288 125.828 331.412 125.958C331.537 126.088 331.634 126.241 331.699 126.409C331.764 126.577 331.795 126.756 331.79 126.936C331.786 127.116 331.746 127.293 331.673 127.457L316.616 161.556C316.507 161.798 316.33 162.003 316.106 162.147C315.882 162.29 315.622 162.365 315.356 162.363V162.363Z" fill="#E85C31"/>
<path d="M152.27 255.966H88.5352C85.6397 255.966 83.2925 258.314 83.2925 261.209V290.407C83.2925 293.303 85.6397 295.65 88.5352 295.65H152.27C155.165 295.65 157.512 293.303 157.512 290.407V261.209C157.512 258.314 155.165 255.966 152.27 255.966Z" fill="white"/>
<path d="M152.269 297.032H88.535C86.7826 297.029 85.103 296.331 83.8638 295.092C82.6247 293.853 81.927 292.173 81.9233 290.421V261.209C81.927 259.457 82.6247 257.777 83.8638 256.538C85.103 255.299 86.7826 254.601 88.535 254.598H152.269C153.138 254.598 153.997 254.769 154.8 255.101C155.602 255.433 156.331 255.92 156.945 256.534C157.558 257.148 158.045 257.877 158.378 258.679C158.71 259.481 158.881 260.341 158.881 261.209V290.421C158.881 292.174 158.184 293.856 156.945 295.096C155.705 296.336 154.023 297.032 152.269 297.032V297.032ZM88.535 257.335C87.5075 257.335 86.5222 257.743 85.7957 258.47C85.0692 259.196 84.6611 260.182 84.6611 261.209V290.421C84.6611 291.448 85.0692 292.434 85.7957 293.16C86.5222 293.887 87.5075 294.295 88.535 294.295H152.269C152.778 294.295 153.282 294.195 153.752 294C154.222 293.805 154.649 293.52 155.009 293.16C155.368 292.8 155.654 292.373 155.848 291.903C156.043 291.433 156.143 290.93 156.143 290.421V261.209C156.143 260.7 156.043 260.197 155.848 259.727C155.654 259.257 155.368 258.83 155.009 258.47C154.649 258.11 154.222 257.825 153.752 257.63C153.282 257.436 152.778 257.335 152.269 257.335H88.535Z" fill="#093F68"/>
<path d="M98.4731 269.778H100.54V274.405H106.016V269.778H108.083V281.414H106.016V276.28H100.54V281.414H98.4731V269.778Z" fill="#E85C31"/>
<path d="M113.024 271.654H109.451V269.778H118.65V271.654H115.105V281.414H113.038L113.024 271.654Z" fill="#E85C31"/>
<path d="M120.115 269.778H123.318L126.425 277.923L129.56 269.778H132.681V281.414H130.71V271.75L127.178 281.414H125.645L122.127 271.75V281.414H120.156L120.115 269.778Z" fill="#E85C31"/>
<path d="M135.282 269.778H137.349V279.538H142.29V281.414H135.282V269.778Z" fill="#E85C31"/>
<defs>
<linearGradient id="paint0_linear_12_2" x1="17.5" y1="15" x2="17.5" y2="260" gradientUnits="userSpaceOnUse">
<stop stop-color="#FF7B25"/>
<stop offset="0.510417" stop-color="#FC5F70"/>
<stop offset="1" stop-color="#FB3B83"/>
</linearGradient>
<linearGradient id="paint1_linear_12_2" x1="20.5" y1="18" x2="20.5" y2="263" gradientUnits="userSpaceOnUse">
<stop stop-color="#FF7B25"/>
<stop offset="0.510417" stop-color="#FC5F70"/>
<stop offset="1" stop-color="#FB3B83"/>
</linearGradient>
<linearGradient id="paint2_linear_12_2" x1="415.5" y1="414" x2="415.5" y2="659" gradientUnits="userSpaceOnUse">
<stop stop-color="#FF7B25"/>
<stop offset="0.510417" stop-color="#FC5F70"/>
<stop offset="1" stop-color="#FB3B83"/>
</linearGradient>
<linearGradient id="paint3_linear_12_2" x1="412.5" y1="411" x2="412.5" y2="656" gradientUnits="userSpaceOnUse">
<stop stop-color="#FF7B25"/>
<stop offset="0.510417" stop-color="#FC5F70"/>
<stop offset="1" stop-color="#FB3B83"/>
</linearGradient>
<linearGradient id="paint4_linear_12_2" x1="215" y1="25.5" x2="215" y2="379.5" gradientUnits="userSpaceOnUse">
<stop stop-color="#FB3B75"/>
<stop offset="0.520833" stop-color="#FC5F70"/>
<stop offset="1" stop-color="#FF7B25"/>
</linearGradient>
</defs>
</svg>
